# xmcd
#
# Track frame offsets: 
#        150
#        15105
#        26992
#        40196
#        57666
#        68385
#        80627
#        94040
#        105369
#        119244
#        131222
#        152477
#        167331
#
# Disc length: 2432 seconds
#
# Revision: 0
# Processed by: cddbd v1.5.2PL0 Copyright (c) Steve Scherf et al.
# Submitted via: ExactAudioCopy v1.3
#
DISCID=a0097e0d
DTITLE=Lost and Found - Love, Lost and Found
DYEAR=2009
DGENRE=Bluegrass
TTITLE0=Back In Her Arms
TTITLE1=I Want To Be Wanted
TTITLE2=If Today Was The Last Day
TTITLE3=A Daisy A Day
TTITLE4=Don't Let Your Sweet Love Die
TTITLE5=A Country Boy In Search Of A Country Girl
TTITLE6=If It Hadn't Been For You
TTITLE7=Trail Of Sorrow
TTITLE8=Pretty Roses Remind Me Of You
TTITLE9=I'll Always Be Glad To Take You Back
TTITLE10=Waltz Medley
TTITLE11=Letter Stained In Blue
TTITLE12=That's What Country Folks Do
EXTD=
EXTT0=
EXTT1=
EXTT2=
EXTT3=
EXTT4=
EXTT5=
EXTT6=
EXTT7=
EXTT8=
EXTT9=
EXTT10=
EXTT11=
EXTT12=
PLAYORDER=
